<mxfile host="app.diagrams.net" modified="2023-03-12T17:38:52.358Z" agent="5.0 (Macintosh; Intel Mac OS X 10_15_7) AppleWebKit/537.36 (KHTML, like Gecko) Chrome/103.0.0.0 Safari/537.36" etag="e2LdWUvEBjOIIWO6PxzU" version="21.0.6" type="github">
  <diagram name="Page-1" id="kMf-w3GRgfFCFivAxGPQ">
    <mxGraphModel dx="6026" dy="4407" grid="1" gridSize="10" guides="1" tooltips="1" connect="1" arrows="1" fold="1" page="1" pageScale="1" pageWidth="1100" pageHeight="850" math="0" shadow="0">
      <root>
        <mxCell id="0" />
        <mxCell id="1" parent="0" />
        <mxCell id="ZEVXzhL1KLUuz-FHyzMR-24" value="" style="group" vertex="1" connectable="0" parent="1">
          <mxGeometry x="-1720" y="-510" width="2210" height="1020" as="geometry" />
        </mxCell>
        <mxCell id="ZEVXzhL1KLUuz-FHyzMR-211" value="" style="ellipse;shape=cloud;whiteSpace=wrap;html=1;fillColor=#6a00ff;fontColor=#ffffff;strokeColor=none;strokeWidth=5;gradientColor=#9999FF;gradientDirection=radial;" vertex="1" parent="ZEVXzhL1KLUuz-FHyzMR-24">
          <mxGeometry x="-512" y="-420" width="2020" height="1440" as="geometry" />
        </mxCell>
        <mxCell id="ZEVXzhL1KLUuz-FHyzMR-23" value="" style="ellipse;shape=cloud;whiteSpace=wrap;html=1;fillColor=#6a00ff;fontColor=#ffffff;strokeColor=#3700CC;strokeWidth=5;" vertex="1" parent="ZEVXzhL1KLUuz-FHyzMR-24">
          <mxGeometry x="-200" y="-250.23" width="1620" height="1090" as="geometry" />
        </mxCell>
        <mxCell id="ZEVXzhL1KLUuz-FHyzMR-8" value="" style="ellipse;whiteSpace=wrap;html=1;aspect=fixed;fillColor=#CCCCFF;strokeColor=none;gradientDirection=radial;strokeWidth=3;fontColor=#ffffff;gradientColor=#6A00FF;" vertex="1" parent="ZEVXzhL1KLUuz-FHyzMR-24">
          <mxGeometry x="521.3793103448276" y="302.22222222222223" width="40.34722222222222" height="40.34722222222222" as="geometry" />
        </mxCell>
        <mxCell id="ZEVXzhL1KLUuz-FHyzMR-9" value="" style="ellipse;whiteSpace=wrap;html=1;aspect=fixed;fillColor=#CCCCFF;strokeColor=none;gradientDirection=radial;strokeWidth=3;fontColor=#ffffff;gradientColor=#6A00FF;" vertex="1" parent="ZEVXzhL1KLUuz-FHyzMR-24">
          <mxGeometry x="738.6206896551723" y="320" width="40.34722222222222" height="40.34722222222222" as="geometry" />
        </mxCell>
        <mxCell id="ZEVXzhL1KLUuz-FHyzMR-10" value="" style="ellipse;whiteSpace=wrap;html=1;aspect=fixed;fillColor=#CCCCFF;strokeColor=none;gradientDirection=radial;strokeWidth=3;fontColor=#ffffff;gradientColor=#6A00FF;" vertex="1" parent="ZEVXzhL1KLUuz-FHyzMR-24">
          <mxGeometry x="608.2758620689655" y="195.55555555555557" width="94.14351851851852" height="94.14351851851852" as="geometry" />
        </mxCell>
        <mxCell id="ZEVXzhL1KLUuz-FHyzMR-11" value="" style="ellipse;whiteSpace=wrap;html=1;aspect=fixed;fillColor=#CCCCFF;strokeColor=none;gradientDirection=radial;strokeWidth=3;fontColor=#ffffff;gradientColor=#6A00FF;" vertex="1" parent="ZEVXzhL1KLUuz-FHyzMR-24">
          <mxGeometry x="521.3793103448276" y="355.5555555555556" width="121.04166666666667" height="121.04166666666667" as="geometry" />
        </mxCell>
        <mxCell id="ZEVXzhL1KLUuz-FHyzMR-12" value="" style="ellipse;whiteSpace=wrap;html=1;aspect=fixed;fillColor=#CCCCFF;strokeColor=none;gradientDirection=radial;strokeWidth=3;fontColor=#ffffff;gradientColor=#6A00FF;" vertex="1" parent="ZEVXzhL1KLUuz-FHyzMR-24">
          <mxGeometry x="260.6896551724138" y="355.5555555555556" width="67.24537037037038" height="67.24537037037038" as="geometry" />
        </mxCell>
        <mxCell id="ZEVXzhL1KLUuz-FHyzMR-13" value="" style="ellipse;whiteSpace=wrap;html=1;aspect=fixed;fillColor=#CCCCFF;strokeColor=none;gradientDirection=radial;strokeWidth=3;fontColor=#ffffff;gradientColor=#6A00FF;" vertex="1" parent="ZEVXzhL1KLUuz-FHyzMR-24">
          <mxGeometry x="825.5172413793105" y="231.11111111111111" width="67.24537037037038" height="67.24537037037038" as="geometry" />
        </mxCell>
        <mxCell id="ZEVXzhL1KLUuz-FHyzMR-14" value="" style="ellipse;whiteSpace=wrap;html=1;aspect=fixed;fillColor=#CCCCFF;strokeColor=none;gradientDirection=radial;strokeWidth=3;fontColor=#ffffff;gradientColor=#6A00FF;" vertex="1" parent="ZEVXzhL1KLUuz-FHyzMR-24">
          <mxGeometry x="325.86206896551727" y="480" width="121.04166666666667" height="121.04166666666667" as="geometry" />
        </mxCell>
        <mxCell id="ZEVXzhL1KLUuz-FHyzMR-15" value="" style="ellipse;whiteSpace=wrap;html=1;aspect=fixed;fillColor=#CCCCFF;strokeColor=none;gradientDirection=radial;strokeWidth=3;fontColor=#ffffff;gradientColor=#6A00FF;" vertex="1" parent="ZEVXzhL1KLUuz-FHyzMR-24">
          <mxGeometry x="868.9655172413794" y="462.22222222222223" width="26.89814814814815" height="26.89814814814815" as="geometry" />
        </mxCell>
        <mxCell id="ZEVXzhL1KLUuz-FHyzMR-16" value="" style="ellipse;whiteSpace=wrap;html=1;aspect=fixed;fillColor=#CCCCFF;strokeColor=none;gradientDirection=radial;strokeWidth=3;fontColor=#ffffff;gradientColor=#6A00FF;" vertex="1" parent="ZEVXzhL1KLUuz-FHyzMR-24">
          <mxGeometry x="803.7931034482758" y="160" width="26.89814814814815" height="26.89814814814815" as="geometry" />
        </mxCell>
        <mxCell id="ZEVXzhL1KLUuz-FHyzMR-17" value="" style="ellipse;whiteSpace=wrap;html=1;aspect=fixed;fillColor=#CCCCFF;strokeColor=none;gradientDirection=radial;strokeWidth=3;fontColor=#ffffff;gradientColor=#6A00FF;" vertex="1" parent="ZEVXzhL1KLUuz-FHyzMR-24">
          <mxGeometry x="564.8275862068966" y="551.1111111111112" width="26.89814814814815" height="26.89814814814815" as="geometry" />
        </mxCell>
        <mxCell id="ZEVXzhL1KLUuz-FHyzMR-18" value="" style="ellipse;whiteSpace=wrap;html=1;aspect=fixed;fillColor=#CCCCFF;strokeColor=none;gradientDirection=radial;strokeWidth=3;fontColor=#ffffff;gradientColor=#6A00FF;" vertex="1" parent="ZEVXzhL1KLUuz-FHyzMR-24">
          <mxGeometry x="412.75862068965523" y="391.11111111111114" width="26.89814814814815" height="26.89814814814815" as="geometry" />
        </mxCell>
        <mxCell id="ZEVXzhL1KLUuz-FHyzMR-19" value="" style="ellipse;whiteSpace=wrap;html=1;aspect=fixed;fillColor=#CCCCFF;strokeColor=none;gradientDirection=radial;strokeWidth=3;fontColor=#ffffff;gradientColor=#6A00FF;" vertex="1" parent="ZEVXzhL1KLUuz-FHyzMR-24">
          <mxGeometry x="325.86206896551727" y="142.22222222222223" width="114.31712962962963" height="114.31712962962963" as="geometry" />
        </mxCell>
        <mxCell id="ZEVXzhL1KLUuz-FHyzMR-20" value="" style="ellipse;whiteSpace=wrap;html=1;aspect=fixed;fillColor=#CCCCFF;strokeColor=none;gradientDirection=radial;strokeWidth=3;fontColor=#ffffff;gradientColor=#6A00FF;" vertex="1" parent="ZEVXzhL1KLUuz-FHyzMR-24">
          <mxGeometry x="716.896551724138" y="542.2222222222222" width="73.96990740740742" height="73.96990740740742" as="geometry" />
        </mxCell>
        <mxCell id="ZEVXzhL1KLUuz-FHyzMR-21" value="" style="ellipse;whiteSpace=wrap;html=1;aspect=fixed;fillColor=#CCCCFF;strokeColor=none;gradientDirection=radial;strokeWidth=3;fontColor=#ffffff;gradientColor=#6A00FF;" vertex="1" parent="ZEVXzhL1KLUuz-FHyzMR-24">
          <mxGeometry x="912.4137931034483" y="328.88888888888886" width="73.96990740740742" height="73.96990740740742" as="geometry" />
        </mxCell>
        <mxCell id="ZEVXzhL1KLUuz-FHyzMR-22" value="" style="ellipse;whiteSpace=wrap;html=1;aspect=fixed;fillColor=#CCCCFF;strokeColor=none;gradientDirection=radial;strokeWidth=3;fontColor=#ffffff;gradientColor=#6A00FF;" vertex="1" parent="ZEVXzhL1KLUuz-FHyzMR-24">
          <mxGeometry x="988.448275862069" y="435.5555555555556" width="114.31712962962963" height="114.31712962962963" as="geometry" />
        </mxCell>
        <mxCell id="ZEVXzhL1KLUuz-FHyzMR-31" value="" style="ellipse;whiteSpace=wrap;html=1;aspect=fixed;fillColor=#CCCCFF;strokeColor=none;gradientDirection=radial;strokeWidth=3;fontColor=#ffffff;gradientColor=#6A00FF;" vertex="1" parent="ZEVXzhL1KLUuz-FHyzMR-24">
          <mxGeometry x="131.24004310344824" y="257.7803174603175" width="73.96990740740742" height="73.96990740740742" as="geometry" />
        </mxCell>
        <mxCell id="ZEVXzhL1KLUuz-FHyzMR-32" value="" style="ellipse;whiteSpace=wrap;html=1;aspect=fixed;fillColor=#CCCCFF;strokeColor=none;gradientDirection=radial;strokeWidth=3;fontColor=#ffffff;gradientColor=#6A00FF;" vertex="1" parent="ZEVXzhL1KLUuz-FHyzMR-24">
          <mxGeometry x="531.5950862068968" y="106.67682539682522" width="26.89814814814815" height="26.89814814814815" as="geometry" />
        </mxCell>
        <mxCell id="ZEVXzhL1KLUuz-FHyzMR-33" value="" style="ellipse;whiteSpace=wrap;html=1;aspect=fixed;fillColor=#CCCCFF;strokeColor=none;gradientDirection=radial;strokeWidth=3;fontColor=#ffffff;gradientColor=#6A00FF;" vertex="1" parent="ZEVXzhL1KLUuz-FHyzMR-24">
          <mxGeometry x="983.87625" y="205.71428571428572" width="39.39041666666667" height="39.39041666666667" as="geometry" />
        </mxCell>
        <mxCell id="ZEVXzhL1KLUuz-FHyzMR-34" value="" style="ellipse;whiteSpace=wrap;html=1;aspect=fixed;fillColor=#CCCCFF;strokeColor=none;gradientDirection=radial;strokeWidth=3;fontColor=#ffffff;gradientColor=#6A00FF;" vertex="1" parent="ZEVXzhL1KLUuz-FHyzMR-24">
          <mxGeometry x="583.35375" y="685.7142857142857" width="39.39041666666667" height="39.39041666666667" as="geometry" />
        </mxCell>
        <mxCell id="ZEVXzhL1KLUuz-FHyzMR-35" value="" style="ellipse;whiteSpace=wrap;html=1;aspect=fixed;fillColor=#CCCCFF;strokeColor=none;gradientDirection=radial;strokeWidth=3;fontColor=#ffffff;gradientColor=#6A00FF;" vertex="1" parent="ZEVXzhL1KLUuz-FHyzMR-24">
          <mxGeometry x="131.24" y="510" width="74.26" height="74.26" as="geometry" />
        </mxCell>
        <mxCell id="ZEVXzhL1KLUuz-FHyzMR-36" value="" style="ellipse;whiteSpace=wrap;html=1;aspect=fixed;fillColor=#CCCCFF;strokeColor=none;gradientDirection=radial;strokeWidth=3;fontColor=#ffffff;gradientColor=#6A00FF;" vertex="1" parent="ZEVXzhL1KLUuz-FHyzMR-24">
          <mxGeometry x="909.7987500000002" y="617.1428571428571" width="39.39041666666667" height="39.39041666666667" as="geometry" />
        </mxCell>
        <mxCell id="ZEVXzhL1KLUuz-FHyzMR-72" value="" style="ellipse;whiteSpace=wrap;html=1;aspect=fixed;fillColor=#CCCCFF;strokeColor=none;gradientDirection=radial;strokeWidth=3;fontColor=#ffffff;gradientColor=#6A00FF;" vertex="1" parent="ZEVXzhL1KLUuz-FHyzMR-24">
          <mxGeometry x="910" y="-30" width="101.04" height="101.04" as="geometry" />
        </mxCell>
        <mxCell id="ZEVXzhL1KLUuz-FHyzMR-73" value="" style="ellipse;whiteSpace=wrap;html=1;aspect=fixed;fillColor=#CCCCFF;strokeColor=none;gradientDirection=radial;strokeWidth=3;fontColor=#ffffff;gradientColor=#6A00FF;" vertex="1" parent="ZEVXzhL1KLUuz-FHyzMR-24">
          <mxGeometry x="-10" y="122.93" width="101.04" height="101.04" as="geometry" />
        </mxCell>
        <mxCell id="ZEVXzhL1KLUuz-FHyzMR-74" value="" style="ellipse;whiteSpace=wrap;html=1;aspect=fixed;fillColor=#CCCCFF;strokeColor=none;gradientDirection=radial;strokeWidth=3;fontColor=#ffffff;gradientColor=#6A00FF;" vertex="1" parent="ZEVXzhL1KLUuz-FHyzMR-24">
          <mxGeometry x="650" y="-60" width="101.04" height="101.04" as="geometry" />
        </mxCell>
        <mxCell id="ZEVXzhL1KLUuz-FHyzMR-75" value="" style="ellipse;whiteSpace=wrap;html=1;aspect=fixed;fillColor=#CCCCFF;strokeColor=none;gradientDirection=radial;strokeWidth=3;fontColor=#ffffff;gradientColor=#6A00FF;" vertex="1" parent="ZEVXzhL1KLUuz-FHyzMR-24">
          <mxGeometry x="1190" y="378.96" width="101.04" height="101.04" as="geometry" />
        </mxCell>
        <mxCell id="ZEVXzhL1KLUuz-FHyzMR-76" value="" style="ellipse;whiteSpace=wrap;html=1;aspect=fixed;fillColor=#CCCCFF;strokeColor=none;gradientDirection=radial;strokeWidth=3;fontColor=#ffffff;gradientColor=#6A00FF;" vertex="1" parent="ZEVXzhL1KLUuz-FHyzMR-24">
          <mxGeometry x="1110" y="101.03999999999999" width="140" height="140" as="geometry" />
        </mxCell>
        <mxCell id="ZEVXzhL1KLUuz-FHyzMR-77" value="" style="ellipse;whiteSpace=wrap;html=1;aspect=fixed;fillColor=#CCCCFF;strokeColor=none;gradientDirection=radial;strokeWidth=3;fontColor=#ffffff;gradientColor=#6A00FF;" vertex="1" parent="ZEVXzhL1KLUuz-FHyzMR-24">
          <mxGeometry x="1102.7662500000001" y="-9.995714285714286" width="39.39041666666667" height="39.39041666666667" as="geometry" />
        </mxCell>
        <mxCell id="ZEVXzhL1KLUuz-FHyzMR-78" value="" style="ellipse;whiteSpace=wrap;html=1;aspect=fixed;fillColor=#CCCCFF;strokeColor=none;gradientDirection=radial;strokeWidth=3;fontColor=#ffffff;gradientColor=#6A00FF;" vertex="1" parent="ZEVXzhL1KLUuz-FHyzMR-24">
          <mxGeometry x="159.99625000000015" y="67.28428571428572" width="39.39041666666667" height="39.39041666666667" as="geometry" />
        </mxCell>
        <mxCell id="ZEVXzhL1KLUuz-FHyzMR-79" value="" style="ellipse;whiteSpace=wrap;html=1;aspect=fixed;fillColor=#CCCCFF;strokeColor=none;gradientDirection=radial;strokeWidth=3;fontColor=#ffffff;gradientColor=#6A00FF;" vertex="1" parent="ZEVXzhL1KLUuz-FHyzMR-24">
          <mxGeometry x="9.996250000000146" y="435.5542857142857" width="39.39041666666667" height="39.39041666666667" as="geometry" />
        </mxCell>
        <mxCell id="ZEVXzhL1KLUuz-FHyzMR-80" value="" style="ellipse;whiteSpace=wrap;html=1;aspect=fixed;fillColor=#CCCCFF;strokeColor=none;gradientDirection=radial;strokeWidth=3;fontColor=#ffffff;gradientColor=#6A00FF;" vertex="1" parent="ZEVXzhL1KLUuz-FHyzMR-24">
          <mxGeometry x="148.52625000000012" y="396.1642857142857" width="39.39041666666667" height="39.39041666666667" as="geometry" />
        </mxCell>
        <mxCell id="ZEVXzhL1KLUuz-FHyzMR-81" value="" style="ellipse;whiteSpace=wrap;html=1;aspect=fixed;fillColor=#CCCCFF;strokeColor=none;gradientDirection=radial;strokeWidth=3;fontColor=#ffffff;gradientColor=#6A00FF;" vertex="1" parent="ZEVXzhL1KLUuz-FHyzMR-24">
          <mxGeometry x="205.49625000000015" y="153.75428571428571" width="39.39041666666667" height="39.39041666666667" as="geometry" />
        </mxCell>
        <mxCell id="ZEVXzhL1KLUuz-FHyzMR-71" value="" style="ellipse;whiteSpace=wrap;html=1;aspect=fixed;fillColor=#CCCCFF;strokeColor=none;gradientDirection=radial;strokeWidth=3;fontColor=#ffffff;gradientColor=#6A00FF;" vertex="1" parent="ZEVXzhL1KLUuz-FHyzMR-24">
          <mxGeometry x="357.45000000000005" y="-120" width="201.04" height="201.04" as="geometry" />
        </mxCell>
        <mxCell id="ZEVXzhL1KLUuz-FHyzMR-654" value="" style="shape=image;html=1;verticalAlign=top;verticalLabelPosition=bottom;labelBackgroundColor=#ffffff;imageAspect=0;aspect=fixed;image=https://cdn4.iconfinder.com/data/icons/ibrandify-basic-essentials-icon-set/512/pen_stroke_sketch_doodle_lineart_32-128.png" vertex="1" parent="ZEVXzhL1KLUuz-FHyzMR-24">
          <mxGeometry x="50" y="-248" width="210.69" height="210.69" as="geometry" />
        </mxCell>
        <mxCell id="ZEVXzhL1KLUuz-FHyzMR-730" value="" style="group" vertex="1" connectable="0" parent="ZEVXzhL1KLUuz-FHyzMR-24">
          <mxGeometry x="550" y="-290" width="70" height="80" as="geometry" />
        </mxCell>
        <mxCell id="ZEVXzhL1KLUuz-FHyzMR-731" value="" style="ellipse;whiteSpace=wrap;html=1;aspect=fixed;fillColor=#6a00ff;strokeColor=none;gradientDirection=radial;strokeWidth=3;fontColor=#ffffff;gradientColor=default;" vertex="1" parent="ZEVXzhL1KLUuz-FHyzMR-730">
          <mxGeometry width="64.60461538461536" height="64.60461538461536" as="geometry" />
        </mxCell>
        <mxCell id="ZEVXzhL1KLUuz-FHyzMR-732" value="" style="shape=image;html=1;verticalAlign=top;verticalLabelPosition=bottom;labelBackgroundColor=#ffffff;imageAspect=0;aspect=fixed;image=https://cdn0.iconfinder.com/data/icons/business-startup-10/50/30-128.png" vertex="1" parent="ZEVXzhL1KLUuz-FHyzMR-730">
          <mxGeometry x="10.487743871935978" y="11.985992996498261" width="45.24585369607878" height="45.24585369607878" as="geometry" />
        </mxCell>
        <mxCell id="ZEVXzhL1KLUuz-FHyzMR-67" value="" style="shape=image;verticalLabelPosition=bottom;labelBackgroundColor=default;verticalAlign=top;aspect=fixed;imageAspect=0;image=https://encrypted-tbn0.gstatic.com/images?q=tbn:ANd9GcQPXle-c5BgJws4_W8agK9hNzb8y7gvxqMInA&amp;usqp=CAU;" vertex="1" parent="1">
          <mxGeometry x="1650" y="-1740" width="440" height="440" as="geometry" />
        </mxCell>
        <mxCell id="ZEVXzhL1KLUuz-FHyzMR-70" value="" style="rounded=1;whiteSpace=wrap;html=1;fillColor=none;fontColor=#ffffff;strokeColor=#2D7600;strokeWidth=20;" vertex="1" parent="1">
          <mxGeometry x="-30" y="-2190" width="1600" height="1540" as="geometry" />
        </mxCell>
        <mxCell id="ZEVXzhL1KLUuz-FHyzMR-210" value="" style="group" vertex="1" connectable="0" parent="1">
          <mxGeometry x="-860" y="-1630" width="643" height="641.1300000000001" as="geometry" />
        </mxCell>
        <mxCell id="ZEVXzhL1KLUuz-FHyzMR-69" value="" style="group" vertex="1" connectable="0" parent="ZEVXzhL1KLUuz-FHyzMR-210">
          <mxGeometry width="643" height="641.1300000000001" as="geometry" />
        </mxCell>
        <mxCell id="ZEVXzhL1KLUuz-FHyzMR-49" value="" style="ellipse;whiteSpace=wrap;html=1;aspect=fixed;fillColor=#647687;strokeColor=#3399FF;fontColor=#ffffff;strokeWidth=4;gradientDirection=radial;gradientColor=default;" vertex="1" parent="ZEVXzhL1KLUuz-FHyzMR-69">
          <mxGeometry x="3" width="640" height="640" as="geometry" />
        </mxCell>
        <mxCell id="ZEVXzhL1KLUuz-FHyzMR-198" value="" style="ellipse;whiteSpace=wrap;html=1;aspect=fixed;fillColor=none;strokeColor=#A50040;fontColor=#ffffff;strokeWidth=2;gradientDirection=radial;" vertex="1" parent="ZEVXzhL1KLUuz-FHyzMR-69">
          <mxGeometry x="37.75" y="36.82000000000001" width="567.5" height="567.5" as="geometry" />
        </mxCell>
        <mxCell id="ZEVXzhL1KLUuz-FHyzMR-52" value="" style="ellipse;whiteSpace=wrap;html=1;aspect=fixed;fillColor=#CCCCCC;strokeColor=#3399FF;strokeWidth=2;gradientDirection=radial;fontColor=#ffffff;gradientColor=#647687;" vertex="1" parent="ZEVXzhL1KLUuz-FHyzMR-69">
          <mxGeometry x="155.5" y="152.5" width="335" height="335" as="geometry" />
        </mxCell>
        <mxCell id="ZEVXzhL1KLUuz-FHyzMR-51" value="" style="ellipse;whiteSpace=wrap;html=1;aspect=fixed;fillColor=#60a917;strokeColor=#2D7600;fontColor=#ffffff;strokeWidth=2;gradientDirection=radial;gradientColor=default;" vertex="1" parent="ZEVXzhL1KLUuz-FHyzMR-69">
          <mxGeometry x="218" y="215" width="210" height="210" as="geometry" />
        </mxCell>
        <mxCell id="ZEVXzhL1KLUuz-FHyzMR-47" value="" style="ellipse;whiteSpace=wrap;html=1;aspect=fixed;fillColor=#60a917;strokeColor=#2D7600;fontColor=#ffffff;strokeWidth=2;gradientDirection=radial;gradientColor=default;" vertex="1" parent="ZEVXzhL1KLUuz-FHyzMR-69">
          <mxGeometry x="295.5" y="292.5" width="55" height="55" as="geometry" />
        </mxCell>
        <mxCell id="ZEVXzhL1KLUuz-FHyzMR-55" value="" style="verticalLabelPosition=bottom;verticalAlign=top;html=1;shape=mxgraph.basic.acute_triangle;dx=0.5;fillColor=none;dashed=1;fontColor=#ffffff;strokeColor=#A50040;strokeWidth=3;" vertex="1" parent="ZEVXzhL1KLUuz-FHyzMR-69">
          <mxGeometry x="320" y="80" width="290" height="240" as="geometry" />
        </mxCell>
        <mxCell id="ZEVXzhL1KLUuz-FHyzMR-63" value="" style="verticalLabelPosition=bottom;verticalAlign=top;html=1;shape=mxgraph.basic.arc;strokeColor=#A50040;strokeWidth=6;startAngle=0.0949360799272025;endAngle=0.24350748372465605;aspect=fixed;fillColor=#d80073;fontColor=#ffffff;" vertex="1" parent="ZEVXzhL1KLUuz-FHyzMR-69">
          <mxGeometry x="-28.75" y="17.5" width="635" height="635" as="geometry" />
        </mxCell>
        <mxCell id="ZEVXzhL1KLUuz-FHyzMR-83" value="" style="ellipse;whiteSpace=wrap;html=1;aspect=fixed;fillColor=#6a00ff;strokeColor=none;gradientDirection=radial;strokeWidth=3;fontColor=#ffffff;gradientColor=default;" vertex="1" parent="ZEVXzhL1KLUuz-FHyzMR-69">
          <mxGeometry x="455.48" y="101.46" width="51.04" height="51.04" as="geometry" />
        </mxCell>
        <mxCell id="ZEVXzhL1KLUuz-FHyzMR-85" value="" style="ellipse;whiteSpace=wrap;html=1;aspect=fixed;fillColor=#6a00ff;strokeColor=none;gradientDirection=radial;strokeWidth=3;fontColor=#ffffff;gradientColor=default;" vertex="1" parent="ZEVXzhL1KLUuz-FHyzMR-69">
          <mxGeometry x="134.45999999999998" y="285" width="21.04" height="21.04" as="geometry" />
        </mxCell>
        <mxCell id="ZEVXzhL1KLUuz-FHyzMR-86" value="" style="ellipse;whiteSpace=wrap;html=1;aspect=fixed;fillColor=#6A00FF;strokeColor=none;gradientDirection=radial;strokeWidth=3;fontColor=#ffffff;gradientColor=default;" vertex="1" parent="ZEVXzhL1KLUuz-FHyzMR-69">
          <mxGeometry x="110" y="350" width="101.04" height="101.04" as="geometry" />
        </mxCell>
        <mxCell id="ZEVXzhL1KLUuz-FHyzMR-88" value="" style="ellipse;whiteSpace=wrap;html=1;aspect=fixed;fillColor=#6a00ff;strokeColor=none;gradientDirection=radial;strokeWidth=3;fontColor=#ffffff;gradientColor=default;" vertex="1" parent="ZEVXzhL1KLUuz-FHyzMR-69">
          <mxGeometry x="169.99999999999997" y="299.96000000000004" width="21.04" height="21.04" as="geometry" />
        </mxCell>
        <mxCell id="ZEVXzhL1KLUuz-FHyzMR-89" value="" style="ellipse;whiteSpace=wrap;html=1;aspect=fixed;fillColor=#6a00ff;strokeColor=none;gradientDirection=radial;strokeWidth=3;fontColor=#ffffff;gradientColor=default;" vertex="1" parent="ZEVXzhL1KLUuz-FHyzMR-69">
          <mxGeometry x="453.44" y="260" width="21.04" height="21.04" as="geometry" />
        </mxCell>
        <mxCell id="ZEVXzhL1KLUuz-FHyzMR-90" value="" style="ellipse;whiteSpace=wrap;html=1;aspect=fixed;fillColor=#6a00ff;strokeColor=none;gradientDirection=radial;strokeWidth=3;fontColor=#ffffff;gradientColor=default;" vertex="1" parent="ZEVXzhL1KLUuz-FHyzMR-69">
          <mxGeometry x="384.97999999999996" y="161.46" width="36.04" height="36.04" as="geometry" />
        </mxCell>
        <mxCell id="ZEVXzhL1KLUuz-FHyzMR-93" value="" style="ellipse;whiteSpace=wrap;html=1;aspect=fixed;fillColor=#6a00ff;strokeColor=none;gradientDirection=radial;strokeWidth=3;fontColor=#ffffff;gradientColor=default;" vertex="1" parent="ZEVXzhL1KLUuz-FHyzMR-69">
          <mxGeometry x="510" y="215" width="32.56" height="32.56" as="geometry" />
        </mxCell>
        <mxCell id="ZEVXzhL1KLUuz-FHyzMR-94" value="" style="ellipse;whiteSpace=wrap;html=1;aspect=fixed;fillColor=#6a00ff;strokeColor=none;gradientDirection=radial;strokeWidth=3;fontColor=#ffffff;gradientColor=default;" vertex="1" parent="ZEVXzhL1KLUuz-FHyzMR-69">
          <mxGeometry x="457.94" y="180" width="32.56" height="32.56" as="geometry" />
        </mxCell>
        <mxCell id="ZEVXzhL1KLUuz-FHyzMR-95" value="" style="ellipse;whiteSpace=wrap;html=1;aspect=fixed;fillColor=#6a00ff;strokeColor=none;gradientDirection=radial;strokeWidth=3;fontColor=#ffffff;gradientColor=default;" vertex="1" parent="ZEVXzhL1KLUuz-FHyzMR-69">
          <mxGeometry x="350" y="110.70000000000005" width="32.56" height="32.56" as="geometry" />
        </mxCell>
        <mxCell id="ZEVXzhL1KLUuz-FHyzMR-98" value="" style="ellipse;whiteSpace=wrap;html=1;aspect=fixed;fillColor=#6a00ff;strokeColor=none;gradientDirection=radial;strokeWidth=3;fontColor=#ffffff;gradientColor=default;" vertex="1" parent="ZEVXzhL1KLUuz-FHyzMR-69">
          <mxGeometry x="228" y="143.26" width="60" height="60" as="geometry" />
        </mxCell>
        <mxCell id="ZEVXzhL1KLUuz-FHyzMR-99" value="" style="ellipse;whiteSpace=wrap;html=1;aspect=fixed;fillColor=#6a00ff;strokeColor=none;gradientDirection=radial;strokeWidth=3;fontColor=#ffffff;gradientColor=default;" vertex="1" parent="ZEVXzhL1KLUuz-FHyzMR-69">
          <mxGeometry x="101.03999999999999" y="156.78" width="99.98" height="99.98" as="geometry" />
        </mxCell>
        <mxCell id="ZEVXzhL1KLUuz-FHyzMR-101" value="" style="ellipse;whiteSpace=wrap;html=1;aspect=fixed;fillColor=#6a00ff;strokeColor=none;gradientDirection=radial;strokeWidth=3;fontColor=#ffffff;gradientColor=default;" vertex="1" parent="ZEVXzhL1KLUuz-FHyzMR-69">
          <mxGeometry x="40" y="320" width="30" height="30" as="geometry" />
        </mxCell>
        <mxCell id="ZEVXzhL1KLUuz-FHyzMR-103" value="" style="ellipse;whiteSpace=wrap;html=1;aspect=fixed;fillColor=#6a00ff;strokeColor=none;gradientDirection=radial;strokeWidth=3;fontColor=#ffffff;gradientColor=default;" vertex="1" parent="ZEVXzhL1KLUuz-FHyzMR-69">
          <mxGeometry x="190" y="487.5" width="50" height="50" as="geometry" />
        </mxCell>
        <mxCell id="ZEVXzhL1KLUuz-FHyzMR-104" value="" style="ellipse;whiteSpace=wrap;html=1;aspect=fixed;fillColor=#6a00ff;strokeColor=none;gradientDirection=radial;strokeWidth=3;fontColor=#ffffff;gradientColor=default;" vertex="1" parent="ZEVXzhL1KLUuz-FHyzMR-69">
          <mxGeometry x="378" y="520" width="50" height="50" as="geometry" />
        </mxCell>
        <mxCell id="ZEVXzhL1KLUuz-FHyzMR-105" value="" style="ellipse;whiteSpace=wrap;html=1;aspect=fixed;fillColor=#6a00ff;strokeColor=none;gradientDirection=radial;strokeWidth=3;fontColor=#ffffff;gradientColor=default;" vertex="1" parent="ZEVXzhL1KLUuz-FHyzMR-69">
          <mxGeometry x="233" y="41" width="50" height="50" as="geometry" />
        </mxCell>
        <mxCell id="ZEVXzhL1KLUuz-FHyzMR-106" value="" style="ellipse;whiteSpace=wrap;html=1;aspect=fixed;fillColor=#6a00ff;strokeColor=none;gradientDirection=radial;strokeWidth=3;fontColor=#ffffff;gradientColor=default;" vertex="1" parent="ZEVXzhL1KLUuz-FHyzMR-69">
          <mxGeometry x="398" y="51" width="30" height="30" as="geometry" />
        </mxCell>
        <mxCell id="ZEVXzhL1KLUuz-FHyzMR-107" value="" style="ellipse;whiteSpace=wrap;html=1;aspect=fixed;fillColor=#6a00ff;strokeColor=none;gradientDirection=radial;strokeWidth=3;fontColor=#ffffff;gradientColor=default;" vertex="1" parent="ZEVXzhL1KLUuz-FHyzMR-69">
          <mxGeometry x="253" y="580" width="30" height="30" as="geometry" />
        </mxCell>
        <mxCell id="ZEVXzhL1KLUuz-FHyzMR-108" value="" style="ellipse;whiteSpace=wrap;html=1;aspect=fixed;fillColor=#6a00ff;strokeColor=none;gradientDirection=radial;strokeWidth=3;fontColor=#ffffff;gradientColor=default;" vertex="1" parent="ZEVXzhL1KLUuz-FHyzMR-69">
          <mxGeometry x="320" y="11" width="30" height="30" as="geometry" />
        </mxCell>
        <mxCell id="ZEVXzhL1KLUuz-FHyzMR-109" value="" style="ellipse;whiteSpace=wrap;html=1;aspect=fixed;fillColor=#6a00ff;strokeColor=none;gradientDirection=radial;strokeWidth=3;fontColor=#ffffff;gradientColor=default;" vertex="1" parent="ZEVXzhL1KLUuz-FHyzMR-69">
          <mxGeometry x="145.52" y="71.46000000000004" width="30" height="30" as="geometry" />
        </mxCell>
        <mxCell id="ZEVXzhL1KLUuz-FHyzMR-143" value="" style="ellipse;whiteSpace=wrap;html=1;aspect=fixed;fillColor=#6a00ff;strokeColor=none;gradientDirection=radial;strokeWidth=3;fontColor=#ffffff;gradientColor=default;" vertex="1" parent="ZEVXzhL1KLUuz-FHyzMR-69">
          <mxGeometry x="490.5" y="534.48" width="21.04" height="21.04" as="geometry" />
        </mxCell>
        <mxCell id="ZEVXzhL1KLUuz-FHyzMR-144" value="" style="ellipse;whiteSpace=wrap;html=1;aspect=fixed;fillColor=#6a00ff;strokeColor=none;gradientDirection=radial;strokeWidth=3;fontColor=#ffffff;gradientColor=default;" vertex="1" parent="ZEVXzhL1KLUuz-FHyzMR-69">
          <mxGeometry x="310.98" y="434" width="21.04" height="21.04" as="geometry" />
        </mxCell>
        <mxCell id="ZEVXzhL1KLUuz-FHyzMR-145" value="" style="ellipse;whiteSpace=wrap;html=1;aspect=fixed;fillColor=#6a00ff;strokeColor=none;gradientDirection=radial;strokeWidth=3;fontColor=#ffffff;gradientColor=default;" vertex="1" parent="ZEVXzhL1KLUuz-FHyzMR-69">
          <mxGeometry x="240" y="460" width="21.04" height="21.04" as="geometry" />
        </mxCell>
        <mxCell id="ZEVXzhL1KLUuz-FHyzMR-146" value="" style="ellipse;whiteSpace=wrap;html=1;aspect=fixed;fillColor=#6a00ff;strokeColor=none;gradientDirection=radial;strokeWidth=3;fontColor=#ffffff;gradientColor=default;" vertex="1" parent="ZEVXzhL1KLUuz-FHyzMR-69">
          <mxGeometry x="88.96000000000001" y="471.03999999999996" width="21.04" height="21.04" as="geometry" />
        </mxCell>
        <mxCell id="ZEVXzhL1KLUuz-FHyzMR-147" value="" style="ellipse;whiteSpace=wrap;html=1;aspect=fixed;fillColor=#6a00ff;strokeColor=none;gradientDirection=radial;strokeWidth=3;fontColor=#ffffff;gradientColor=default;" vertex="1" parent="ZEVXzhL1KLUuz-FHyzMR-69">
          <mxGeometry x="328.96000000000004" y="168.96000000000004" width="21.04" height="21.04" as="geometry" />
        </mxCell>
        <mxCell id="ZEVXzhL1KLUuz-FHyzMR-149" value="" style="ellipse;whiteSpace=wrap;html=1;aspect=fixed;fillColor=#6a00ff;strokeColor=none;gradientDirection=radial;strokeWidth=3;fontColor=#ffffff;gradientColor=default;" vertex="1" parent="ZEVXzhL1KLUuz-FHyzMR-69">
          <mxGeometry x="374.4" y="454.94000000000005" width="32.56" height="32.56" as="geometry" />
        </mxCell>
        <mxCell id="ZEVXzhL1KLUuz-FHyzMR-151" value="" style="ellipse;whiteSpace=wrap;html=1;aspect=fixed;fillColor=#6a00ff;strokeColor=none;gradientDirection=radial;strokeWidth=3;fontColor=#ffffff;gradientColor=default;" vertex="1" parent="ZEVXzhL1KLUuz-FHyzMR-69">
          <mxGeometry x="350" y="610" width="21.04" height="21.04" as="geometry" />
        </mxCell>
        <mxCell id="ZEVXzhL1KLUuz-FHyzMR-152" value="" style="ellipse;whiteSpace=wrap;html=1;aspect=fixed;fillColor=#6a00ff;strokeColor=none;gradientDirection=radial;strokeWidth=3;fontColor=#ffffff;gradientColor=default;" vertex="1" parent="ZEVXzhL1KLUuz-FHyzMR-69">
          <mxGeometry x="40" y="226.51999999999998" width="21.04" height="21.04" as="geometry" />
        </mxCell>
        <mxCell id="ZEVXzhL1KLUuz-FHyzMR-153" value="" style="ellipse;whiteSpace=wrap;html=1;aspect=fixed;fillColor=#6a00ff;strokeColor=none;gradientDirection=radial;strokeWidth=3;fontColor=#ffffff;gradientColor=default;" vertex="1" parent="ZEVXzhL1KLUuz-FHyzMR-69">
          <mxGeometry x="218.96" y="215" width="21.04" height="21.04" as="geometry" />
        </mxCell>
        <mxCell id="ZEVXzhL1KLUuz-FHyzMR-154" value="" style="ellipse;whiteSpace=wrap;html=1;aspect=fixed;fillColor=#6a00ff;strokeColor=none;gradientDirection=radial;strokeWidth=3;fontColor=#ffffff;gradientColor=default;" vertex="1" parent="ZEVXzhL1KLUuz-FHyzMR-69">
          <mxGeometry x="210" y="403.96000000000004" width="21.04" height="21.04" as="geometry" />
        </mxCell>
        <mxCell id="ZEVXzhL1KLUuz-FHyzMR-157" value="" style="ellipse;whiteSpace=wrap;html=1;aspect=fixed;fillColor=#6a00ff;strokeColor=none;gradientDirection=radial;strokeWidth=3;fontColor=#ffffff;gradientColor=default;" vertex="1" parent="ZEVXzhL1KLUuz-FHyzMR-69">
          <mxGeometry x="320" y="555.52" width="30" height="30" as="geometry" />
        </mxCell>
        <mxCell id="ZEVXzhL1KLUuz-FHyzMR-158" value="" style="ellipse;whiteSpace=wrap;html=1;aspect=fixed;fillColor=#6a00ff;strokeColor=none;gradientDirection=radial;strokeWidth=3;fontColor=#ffffff;gradientColor=default;" vertex="1" parent="ZEVXzhL1KLUuz-FHyzMR-69">
          <mxGeometry x="276" y="471.03999999999996" width="50" height="50" as="geometry" />
        </mxCell>
        <mxCell id="ZEVXzhL1KLUuz-FHyzMR-159" value="" style="ellipse;whiteSpace=wrap;html=1;aspect=fixed;fillColor=#6a00ff;strokeColor=none;gradientDirection=radial;strokeWidth=3;fontColor=#ffffff;gradientColor=default;" vertex="1" parent="ZEVXzhL1KLUuz-FHyzMR-69">
          <mxGeometry x="134.47" y="534.48" width="21.04" height="21.04" as="geometry" />
        </mxCell>
        <mxCell id="ZEVXzhL1KLUuz-FHyzMR-160" value="" style="ellipse;whiteSpace=wrap;html=1;aspect=fixed;fillColor=#6a00ff;strokeColor=none;gradientDirection=radial;strokeWidth=3;fontColor=#ffffff;gradientColor=default;" vertex="1" parent="ZEVXzhL1KLUuz-FHyzMR-69">
          <mxGeometry x="276" y="89.66000000000008" width="21.04" height="21.04" as="geometry" />
        </mxCell>
        <mxCell id="ZEVXzhL1KLUuz-FHyzMR-161" value="" style="ellipse;whiteSpace=wrap;html=1;aspect=fixed;fillColor=#6a00ff;strokeColor=none;gradientDirection=radial;strokeWidth=3;fontColor=#ffffff;gradientColor=default;" vertex="1" parent="ZEVXzhL1KLUuz-FHyzMR-69">
          <mxGeometry x="168.96" y="501.03999999999996" width="21.04" height="21.04" as="geometry" />
        </mxCell>
        <mxCell id="ZEVXzhL1KLUuz-FHyzMR-162" value="" style="ellipse;whiteSpace=wrap;html=1;aspect=fixed;fillColor=#6a00ff;strokeColor=none;gradientDirection=radial;strokeWidth=3;fontColor=#ffffff;gradientColor=default;" vertex="1" parent="ZEVXzhL1KLUuz-FHyzMR-69">
          <mxGeometry x="80.00000000000001" y="252.22000000000003" width="21.04" height="21.04" as="geometry" />
        </mxCell>
        <mxCell id="ZEVXzhL1KLUuz-FHyzMR-163" value="" style="ellipse;whiteSpace=wrap;html=1;aspect=fixed;fillColor=#6a00ff;strokeColor=none;gradientDirection=radial;strokeWidth=3;fontColor=#ffffff;gradientColor=default;" vertex="1" parent="ZEVXzhL1KLUuz-FHyzMR-69">
          <mxGeometry x="399.98" y="215" width="21.04" height="21.04" as="geometry" />
        </mxCell>
        <mxCell id="ZEVXzhL1KLUuz-FHyzMR-164" value="" style="ellipse;whiteSpace=wrap;html=1;aspect=fixed;fillColor=#6a00ff;strokeColor=none;gradientDirection=radial;strokeWidth=3;fontColor=#ffffff;gradientColor=default;" vertex="1" parent="ZEVXzhL1KLUuz-FHyzMR-69">
          <mxGeometry x="520" y="152.5" width="10.48" height="10.48" as="geometry" />
        </mxCell>
        <mxCell id="ZEVXzhL1KLUuz-FHyzMR-165" value="" style="ellipse;whiteSpace=wrap;html=1;aspect=fixed;fillColor=#6a00ff;strokeColor=none;gradientDirection=radial;strokeWidth=3;fontColor=#ffffff;gradientColor=default;" vertex="1" parent="ZEVXzhL1KLUuz-FHyzMR-69">
          <mxGeometry x="439.52" y="299.96000000000004" width="10.48" height="10.48" as="geometry" />
        </mxCell>
        <mxCell id="ZEVXzhL1KLUuz-FHyzMR-166" value="" style="ellipse;whiteSpace=wrap;html=1;aspect=fixed;fillColor=#6a00ff;strokeColor=none;gradientDirection=radial;strokeWidth=3;fontColor=#ffffff;gradientColor=default;" vertex="1" parent="ZEVXzhL1KLUuz-FHyzMR-69">
          <mxGeometry x="474.47999999999996" y="60.75999999999999" width="10.48" height="10.48" as="geometry" />
        </mxCell>
        <mxCell id="ZEVXzhL1KLUuz-FHyzMR-167" value="" style="ellipse;whiteSpace=wrap;html=1;aspect=fixed;fillColor=#6a00ff;strokeColor=none;gradientDirection=radial;strokeWidth=3;fontColor=#ffffff;gradientColor=default;" vertex="1" parent="ZEVXzhL1KLUuz-FHyzMR-69">
          <mxGeometry x="599.52" y="197.50000000000006" width="10.48" height="10.48" as="geometry" />
        </mxCell>
        <mxCell id="ZEVXzhL1KLUuz-FHyzMR-168" value="" style="ellipse;whiteSpace=wrap;html=1;aspect=fixed;fillColor=#6a00ff;strokeColor=none;gradientDirection=radial;strokeWidth=3;fontColor=#ffffff;gradientColor=default;" vertex="1" parent="ZEVXzhL1KLUuz-FHyzMR-69">
          <mxGeometry x="559.52" y="247.56000000000006" width="10.48" height="10.48" as="geometry" />
        </mxCell>
        <mxCell id="ZEVXzhL1KLUuz-FHyzMR-169" value="" style="ellipse;whiteSpace=wrap;html=1;aspect=fixed;fillColor=#6a00ff;strokeColor=none;gradientDirection=radial;strokeWidth=3;fontColor=#ffffff;gradientColor=default;" vertex="1" parent="ZEVXzhL1KLUuz-FHyzMR-69">
          <mxGeometry x="378" y="20.75999999999999" width="10.48" height="10.48" as="geometry" />
        </mxCell>
        <mxCell id="ZEVXzhL1KLUuz-FHyzMR-170" value="" style="ellipse;whiteSpace=wrap;html=1;aspect=fixed;fillColor=#6a00ff;strokeColor=none;gradientDirection=radial;strokeWidth=3;fontColor=#ffffff;gradientColor=default;" vertex="1" parent="ZEVXzhL1KLUuz-FHyzMR-69">
          <mxGeometry x="199.5" y="40.51999999999998" width="10.48" height="10.48" as="geometry" />
        </mxCell>
        <mxCell id="ZEVXzhL1KLUuz-FHyzMR-171" value="" style="ellipse;whiteSpace=wrap;html=1;aspect=fixed;fillColor=#6a00ff;strokeColor=none;gradientDirection=radial;strokeWidth=3;fontColor=#ffffff;gradientColor=default;" vertex="1" parent="ZEVXzhL1KLUuz-FHyzMR-69">
          <mxGeometry x="101.04" y="265.28" width="10.48" height="10.48" as="geometry" />
        </mxCell>
        <mxCell id="ZEVXzhL1KLUuz-FHyzMR-172" value="" style="ellipse;whiteSpace=wrap;html=1;aspect=fixed;fillColor=#6a00ff;strokeColor=none;gradientDirection=radial;strokeWidth=3;fontColor=#ffffff;gradientColor=default;" vertex="1" parent="ZEVXzhL1KLUuz-FHyzMR-69">
          <mxGeometry x="45.28" y="399.52" width="10.48" height="10.48" as="geometry" />
        </mxCell>
        <mxCell id="ZEVXzhL1KLUuz-FHyzMR-173" value="" style="rhombus;whiteSpace=wrap;html=1;aspect=fixed;fillColor=#60a917;fontColor=#ffffff;strokeColor=none;" vertex="1" parent="ZEVXzhL1KLUuz-FHyzMR-69">
          <mxGeometry x="375" y="234.8" width="13.24" height="13.24" as="geometry" />
        </mxCell>
        <mxCell id="ZEVXzhL1KLUuz-FHyzMR-176" value="" style="rhombus;whiteSpace=wrap;html=1;aspect=fixed;fillColor=#60a917;fontColor=#ffffff;strokeColor=none;" vertex="1" parent="ZEVXzhL1KLUuz-FHyzMR-69">
          <mxGeometry x="375.24" y="256.76" width="13.24" height="13.24" as="geometry" />
        </mxCell>
        <mxCell id="ZEVXzhL1KLUuz-FHyzMR-180" value="" style="rhombus;whiteSpace=wrap;html=1;aspect=fixed;fillColor=#60a917;fontColor=#ffffff;strokeColor=none;" vertex="1" parent="ZEVXzhL1KLUuz-FHyzMR-69">
          <mxGeometry x="365.76" y="247.17999999999995" width="13.24" height="13.24" as="geometry" />
        </mxCell>
        <mxCell id="ZEVXzhL1KLUuz-FHyzMR-181" value="" style="rhombus;whiteSpace=wrap;html=1;aspect=fixed;fillColor=#60a917;fontColor=#ffffff;strokeColor=none;" vertex="1" parent="ZEVXzhL1KLUuz-FHyzMR-69">
          <mxGeometry x="359.65999999999997" y="260.02" width="13.24" height="13.24" as="geometry" />
        </mxCell>
        <mxCell id="ZEVXzhL1KLUuz-FHyzMR-187" value="" style="rhombus;whiteSpace=wrap;html=1;aspect=fixed;fillColor=#60a917;fontColor=#ffffff;strokeColor=none;" vertex="1" parent="ZEVXzhL1KLUuz-FHyzMR-69">
          <mxGeometry x="353.9" y="273.26" width="13.24" height="13.24" as="geometry" />
        </mxCell>
        <mxCell id="ZEVXzhL1KLUuz-FHyzMR-191" value="" style="rhombus;whiteSpace=wrap;html=1;aspect=fixed;fillColor=#60a917;fontColor=#ffffff;strokeColor=none;" vertex="1" parent="ZEVXzhL1KLUuz-FHyzMR-69">
          <mxGeometry x="346.09999999999997" y="286.5" width="13.24" height="13.24" as="geometry" />
        </mxCell>
        <mxCell id="ZEVXzhL1KLUuz-FHyzMR-192" value="" style="rhombus;whiteSpace=wrap;html=1;aspect=fixed;fillColor=#60a917;fontColor=#ffffff;strokeColor=none;" vertex="1" parent="ZEVXzhL1KLUuz-FHyzMR-69">
          <mxGeometry x="357.9" y="295.0400000000001" width="13.24" height="13.24" as="geometry" />
        </mxCell>
        <mxCell id="ZEVXzhL1KLUuz-FHyzMR-194" value="" style="rhombus;whiteSpace=wrap;html=1;aspect=fixed;fillColor=#60a917;fontColor=#ffffff;strokeColor=none;" vertex="1" parent="ZEVXzhL1KLUuz-FHyzMR-69">
          <mxGeometry x="332.86" y="306.0400000000001" width="13.24" height="13.24" as="geometry" />
        </mxCell>
        <mxCell id="ZEVXzhL1KLUuz-FHyzMR-195" value="" style="rhombus;whiteSpace=wrap;html=1;aspect=fixed;fillColor=#60a917;fontColor=#ffffff;strokeColor=none;" vertex="1" parent="ZEVXzhL1KLUuz-FHyzMR-69">
          <mxGeometry x="368.32000000000005" y="305.0400000000001" width="13.24" height="13.24" as="geometry" />
        </mxCell>
        <mxCell id="ZEVXzhL1KLUuz-FHyzMR-188" value="" style="rhombus;whiteSpace=wrap;html=1;aspect=fixed;fillColor=#60a917;fontColor=#ffffff;strokeColor=none;" vertex="1" parent="ZEVXzhL1KLUuz-FHyzMR-69">
          <mxGeometry x="364.76" y="281.4" width="13.24" height="13.24" as="geometry" />
        </mxCell>
        <mxCell id="ZEVXzhL1KLUuz-FHyzMR-197" value="" style="rhombus;whiteSpace=wrap;html=1;aspect=fixed;fillColor=#60a917;fontColor=#ffffff;strokeColor=none;" vertex="1" parent="ZEVXzhL1KLUuz-FHyzMR-69">
          <mxGeometry x="350" y="305.0400000000001" width="13.24" height="13.24" as="geometry" />
        </mxCell>
        <mxCell id="ZEVXzhL1KLUuz-FHyzMR-200" value="" style="ellipse;whiteSpace=wrap;html=1;aspect=fixed;fillColor=#6a00ff;strokeColor=none;gradientDirection=radial;strokeWidth=3;fontColor=#ffffff;gradientColor=default;" vertex="1" parent="ZEVXzhL1KLUuz-FHyzMR-69">
          <mxGeometry x="434.24" y="158.96000000000004" width="21.04" height="21.04" as="geometry" />
        </mxCell>
        <mxCell id="ZEVXzhL1KLUuz-FHyzMR-201" value="" style="ellipse;whiteSpace=wrap;html=1;aspect=fixed;fillColor=#6a00ff;strokeColor=none;gradientDirection=radial;strokeWidth=3;fontColor=#ffffff;gradientColor=default;" vertex="1" parent="ZEVXzhL1KLUuz-FHyzMR-69">
          <mxGeometry x="570" y="162.98000000000002" width="21.04" height="21.04" as="geometry" />
        </mxCell>
        <mxCell id="ZEVXzhL1KLUuz-FHyzMR-204" value="" style="ellipse;whiteSpace=wrap;html=1;aspect=fixed;fillColor=#6a00ff;strokeColor=none;gradientDirection=radial;strokeWidth=3;fontColor=#ffffff;gradientColor=default;" vertex="1" parent="ZEVXzhL1KLUuz-FHyzMR-69">
          <mxGeometry x="204.48000000000002" y="101.46000000000004" width="21.04" height="21.04" as="geometry" />
        </mxCell>
        <mxCell id="ZEVXzhL1KLUuz-FHyzMR-205" value="" style="rhombus;whiteSpace=wrap;html=1;aspect=fixed;fillColor=#60a917;fontColor=#ffffff;strokeColor=none;" vertex="1" parent="ZEVXzhL1KLUuz-FHyzMR-69">
          <mxGeometry x="332.86" y="292.80000000000007" width="13.24" height="13.24" as="geometry" />
        </mxCell>
        <mxCell id="ZEVXzhL1KLUuz-FHyzMR-206" value="" style="ellipse;whiteSpace=wrap;html=1;aspect=fixed;fillColor=#6a00ff;strokeColor=none;gradientDirection=radial;strokeWidth=3;fontColor=#ffffff;gradientColor=default;" vertex="1" parent="ZEVXzhL1KLUuz-FHyzMR-69">
          <mxGeometry x="480.02000000000004" y="236.03999999999996" width="10.48" height="10.48" as="geometry" />
        </mxCell>
        <mxCell id="ZEVXzhL1KLUuz-FHyzMR-207" value="" style="ellipse;whiteSpace=wrap;html=1;aspect=fixed;fillColor=#6a00ff;strokeColor=none;gradientDirection=radial;strokeWidth=3;fontColor=#ffffff;gradientColor=default;" vertex="1" parent="ZEVXzhL1KLUuz-FHyzMR-69">
          <mxGeometry x="423.76000000000005" y="203.02999999999997" width="10.48" height="10.48" as="geometry" />
        </mxCell>
        <mxCell id="ZEVXzhL1KLUuz-FHyzMR-208" value="" style="ellipse;whiteSpace=wrap;html=1;aspect=fixed;fillColor=#6a00ff;strokeColor=none;gradientDirection=radial;strokeWidth=3;fontColor=#ffffff;gradientColor=default;" vertex="1" parent="ZEVXzhL1KLUuz-FHyzMR-69">
          <mxGeometry x="417.52000000000004" y="249.93999999999994" width="10.48" height="10.48" as="geometry" />
        </mxCell>
        <mxCell id="ZEVXzhL1KLUuz-FHyzMR-209" value="" style="ellipse;whiteSpace=wrap;html=1;aspect=fixed;fillColor=#6a00ff;strokeColor=none;gradientDirection=radial;strokeWidth=3;fontColor=#ffffff;gradientColor=default;" vertex="1" parent="ZEVXzhL1KLUuz-FHyzMR-69">
          <mxGeometry x="435.24" y="225.48000000000002" width="21.04" height="21.04" as="geometry" />
        </mxCell>
        <mxCell id="ZEVXzhL1KLUuz-FHyzMR-228" value="" style="shape=image;html=1;verticalAlign=top;verticalLabelPosition=bottom;labelBackgroundColor=#ffffff;imageAspect=0;aspect=fixed;image=https://cdn1.iconfinder.com/data/icons/science-technology-outline-24-px/24/Atom_atom_bond_electron_molecule_science_-128.png" vertex="1" parent="ZEVXzhL1KLUuz-FHyzMR-69">
          <mxGeometry x="500" y="266.64" width="20" height="20" as="geometry" />
        </mxCell>
        <mxCell id="ZEVXzhL1KLUuz-FHyzMR-229" value="" style="shape=image;html=1;verticalAlign=top;verticalLabelPosition=bottom;labelBackgroundColor=#ffffff;imageAspect=0;aspect=fixed;image=https://cdn1.iconfinder.com/data/icons/science-technology-outline-24-px/24/Atom_atom_bond_electron_molecule_science_-128.png" vertex="1" parent="ZEVXzhL1KLUuz-FHyzMR-69">
          <mxGeometry x="460.02" y="286.6399999999999" width="20" height="20" as="geometry" />
        </mxCell>
        <mxCell id="ZEVXzhL1KLUuz-FHyzMR-230" value="" style="shape=image;html=1;verticalAlign=top;verticalLabelPosition=bottom;labelBackgroundColor=#ffffff;imageAspect=0;aspect=fixed;image=https://cdn1.iconfinder.com/data/icons/science-technology-outline-24-px/24/Atom_atom_bond_electron_molecule_science_-128.png" vertex="1" parent="ZEVXzhL1KLUuz-FHyzMR-69">
          <mxGeometry x="430" y="266.6399999999999" width="20" height="20" as="geometry" />
        </mxCell>
        <mxCell id="ZEVXzhL1KLUuz-FHyzMR-231" value="" style="shape=image;html=1;verticalAlign=top;verticalLabelPosition=bottom;labelBackgroundColor=#ffffff;imageAspect=0;aspect=fixed;image=https://cdn1.iconfinder.com/data/icons/science-technology-outline-24-px/24/Atom_atom_bond_electron_molecule_science_-128.png" vertex="1" parent="ZEVXzhL1KLUuz-FHyzMR-69">
          <mxGeometry x="486.52" y="212.55999999999995" width="20" height="20" as="geometry" />
        </mxCell>
        <mxCell id="ZEVXzhL1KLUuz-FHyzMR-232" value="" style="shape=image;html=1;verticalAlign=top;verticalLabelPosition=bottom;labelBackgroundColor=#ffffff;imageAspect=0;aspect=fixed;image=https://cdn1.iconfinder.com/data/icons/science-technology-outline-24-px/24/Atom_atom_bond_electron_molecule_science_-128.png" vertex="1" parent="ZEVXzhL1KLUuz-FHyzMR-69">
          <mxGeometry x="545" y="360" width="39.52" height="39.52" as="geometry" />
        </mxCell>
        <mxCell id="ZEVXzhL1KLUuz-FHyzMR-233" value="" style="shape=image;html=1;verticalAlign=top;verticalLabelPosition=bottom;labelBackgroundColor=#ffffff;imageAspect=0;aspect=fixed;image=https://cdn1.iconfinder.com/data/icons/science-technology-outline-24-px/24/Atom_atom_bond_electron_molecule_science_-128.png" vertex="1" parent="ZEVXzhL1KLUuz-FHyzMR-69">
          <mxGeometry x="426.74" y="181.4599999999998" width="26.52" height="26.52" as="geometry" />
        </mxCell>
        <mxCell id="ZEVXzhL1KLUuz-FHyzMR-234" value="" style="shape=image;html=1;verticalAlign=top;verticalLabelPosition=bottom;labelBackgroundColor=#ffffff;imageAspect=0;aspect=fixed;image=https://cdn1.iconfinder.com/data/icons/science-technology-outline-24-px/24/Atom_atom_bond_electron_molecule_science_-128.png" vertex="1" parent="ZEVXzhL1KLUuz-FHyzMR-69">
          <mxGeometry x="467.74" y="152.49999999999977" width="26.52" height="26.52" as="geometry" />
        </mxCell>
        <mxCell id="ZEVXzhL1KLUuz-FHyzMR-235" value="" style="shape=image;html=1;verticalAlign=top;verticalLabelPosition=bottom;labelBackgroundColor=#ffffff;imageAspect=0;aspect=fixed;image=https://cdn1.iconfinder.com/data/icons/science-technology-outline-24-px/24/Atom_atom_bond_electron_molecule_science_-128.png" vertex="1" parent="ZEVXzhL1KLUuz-FHyzMR-69">
          <mxGeometry x="500" y="179.99999999999977" width="26.52" height="26.52" as="geometry" />
        </mxCell>
        <mxCell id="ZEVXzhL1KLUuz-FHyzMR-236" value="" style="shape=image;html=1;verticalAlign=top;verticalLabelPosition=bottom;labelBackgroundColor=#ffffff;imageAspect=0;aspect=fixed;image=https://cdn1.iconfinder.com/data/icons/science-technology-outline-24-px/24/Atom_atom_bond_electron_molecule_science_-128.png" vertex="1" parent="ZEVXzhL1KLUuz-FHyzMR-69">
          <mxGeometry x="554.24" y="280.1199999999999" width="26.52" height="26.52" as="geometry" />
        </mxCell>
        <mxCell id="ZEVXzhL1KLUuz-FHyzMR-522" value="" style="shape=image;html=1;verticalAlign=top;verticalLabelPosition=bottom;labelBackgroundColor=#ffffff;imageAspect=0;aspect=fixed;image=https://cdn1.iconfinder.com/data/icons/science-technology-outline-24-px/24/Atom_atom_bond_electron_molecule_science_-128.png" vertex="1" parent="ZEVXzhL1KLUuz-FHyzMR-69">
          <mxGeometry x="460" y="324" width="26.52" height="26.52" as="geometry" />
        </mxCell>
        <mxCell id="ZEVXzhL1KLUuz-FHyzMR-523" value="" style="shape=image;html=1;verticalAlign=top;verticalLabelPosition=bottom;labelBackgroundColor=#ffffff;imageAspect=0;aspect=fixed;image=https://cdn1.iconfinder.com/data/icons/science-technology-outline-24-px/24/Atom_atom_bond_electron_molecule_science_-128.png" vertex="1" parent="ZEVXzhL1KLUuz-FHyzMR-69">
          <mxGeometry x="432.5" y="334.5" width="26.52" height="26.52" as="geometry" />
        </mxCell>
        <mxCell id="ZEVXzhL1KLUuz-FHyzMR-524" value="" style="shape=image;html=1;verticalAlign=top;verticalLabelPosition=bottom;labelBackgroundColor=#ffffff;imageAspect=0;aspect=fixed;image=https://cdn1.iconfinder.com/data/icons/science-technology-outline-24-px/24/Atom_atom_bond_electron_molecule_science_-128.png" vertex="1" parent="ZEVXzhL1KLUuz-FHyzMR-69">
          <mxGeometry x="503.48" y="328" width="26.52" height="26.52" as="geometry" />
        </mxCell>
        <mxCell id="ZEVXzhL1KLUuz-FHyzMR-525" value="" style="shape=image;html=1;verticalAlign=top;verticalLabelPosition=bottom;labelBackgroundColor=#ffffff;imageAspect=0;aspect=fixed;image=https://cdn1.iconfinder.com/data/icons/science-technology-outline-24-px/24/Atom_atom_bond_electron_molecule_science_-128.png" vertex="1" parent="ZEVXzhL1KLUuz-FHyzMR-69">
          <mxGeometry x="530.48" y="252.22000000000003" width="26.52" height="26.52" as="geometry" />
        </mxCell>
        <mxCell id="ZEVXzhL1KLUuz-FHyzMR-526" value="" style="shape=image;html=1;verticalAlign=top;verticalLabelPosition=bottom;labelBackgroundColor=#ffffff;imageAspect=0;aspect=fixed;image=https://cdn1.iconfinder.com/data/icons/science-technology-outline-24-px/24/Atom_atom_bond_electron_molecule_science_-128.png" vertex="1" parent="ZEVXzhL1KLUuz-FHyzMR-69">
          <mxGeometry x="407.72" y="403.96000000000004" width="26.52" height="26.52" as="geometry" />
        </mxCell>
        <mxCell id="ZEVXzhL1KLUuz-FHyzMR-527" value="" style="shape=image;html=1;verticalAlign=top;verticalLabelPosition=bottom;labelBackgroundColor=#ffffff;imageAspect=0;aspect=fixed;image=https://cdn1.iconfinder.com/data/icons/science-technology-outline-24-px/24/Atom_atom_bond_electron_molecule_science_-128.png" vertex="1" parent="ZEVXzhL1KLUuz-FHyzMR-69">
          <mxGeometry x="297.03999999999996" y="170.98000000000002" width="26.52" height="26.52" as="geometry" />
        </mxCell>
        <mxCell id="ZEVXzhL1KLUuz-FHyzMR-528" value="" style="shape=image;html=1;verticalAlign=top;verticalLabelPosition=bottom;labelBackgroundColor=#ffffff;imageAspect=0;aspect=fixed;image=https://cdn1.iconfinder.com/data/icons/science-technology-outline-24-px/24/Atom_atom_bond_electron_molecule_science_-128.png" vertex="1" parent="ZEVXzhL1KLUuz-FHyzMR-69">
          <mxGeometry x="348.47999999999996" y="188.48000000000002" width="26.52" height="26.52" as="geometry" />
        </mxCell>
        <mxCell id="ZEVXzhL1KLUuz-FHyzMR-529" value="" style="shape=image;html=1;verticalAlign=top;verticalLabelPosition=bottom;labelBackgroundColor=#ffffff;imageAspect=0;aspect=fixed;image=https://cdn1.iconfinder.com/data/icons/science-technology-outline-24-px/24/Atom_atom_bond_electron_molecule_science_-128.png" vertex="1" parent="ZEVXzhL1KLUuz-FHyzMR-69">
          <mxGeometry x="500" y="377.44000000000005" width="26.52" height="26.52" as="geometry" />
        </mxCell>
        <mxCell id="ZEVXzhL1KLUuz-FHyzMR-530" value="" style="shape=image;html=1;verticalAlign=top;verticalLabelPosition=bottom;labelBackgroundColor=#ffffff;imageAspect=0;aspect=fixed;image=https://cdn1.iconfinder.com/data/icons/science-technology-outline-24-px/24/Atom_atom_bond_electron_molecule_science_-128.png" vertex="1" parent="ZEVXzhL1KLUuz-FHyzMR-69">
          <mxGeometry x="420" y="362.26" width="47.74" height="47.74" as="geometry" />
        </mxCell>
        <mxCell id="ZEVXzhL1KLUuz-FHyzMR-531" value="" style="shape=image;html=1;verticalAlign=top;verticalLabelPosition=bottom;labelBackgroundColor=#ffffff;imageAspect=0;aspect=fixed;image=https://cdn1.iconfinder.com/data/icons/science-technology-outline-24-px/24/Atom_atom_bond_electron_molecule_science_-128.png" vertex="1" parent="ZEVXzhL1KLUuz-FHyzMR-69">
          <mxGeometry x="184.51999999999998" y="136.46000000000004" width="26.52" height="26.52" as="geometry" />
        </mxCell>
        <mxCell id="ZEVXzhL1KLUuz-FHyzMR-532" value="" style="shape=image;html=1;verticalAlign=top;verticalLabelPosition=bottom;labelBackgroundColor=#ffffff;imageAspect=0;aspect=fixed;image=https://cdn1.iconfinder.com/data/icons/science-technology-outline-24-px/24/Atom_atom_bond_electron_molecule_science_-128.png" vertex="1" parent="ZEVXzhL1KLUuz-FHyzMR-69">
          <mxGeometry x="476.96" y="444.52" width="26.52" height="26.52" as="geometry" />
        </mxCell>
        <mxCell id="ZEVXzhL1KLUuz-FHyzMR-533" value="" style="shape=image;html=1;verticalAlign=top;verticalLabelPosition=bottom;labelBackgroundColor=#ffffff;imageAspect=0;aspect=fixed;image=https://cdn1.iconfinder.com/data/icons/science-technology-outline-24-px/24/Atom_atom_bond_electron_molecule_science_-128.png" vertex="1" parent="ZEVXzhL1KLUuz-FHyzMR-69">
          <mxGeometry x="436.52" y="479.81999999999994" width="63.48" height="63.48" as="geometry" />
        </mxCell>
        <mxCell id="ZEVXzhL1KLUuz-FHyzMR-534" value="" style="shape=image;html=1;verticalAlign=top;verticalLabelPosition=bottom;labelBackgroundColor=#ffffff;imageAspect=0;aspect=fixed;image=https://cdn1.iconfinder.com/data/icons/science-technology-outline-24-px/24/Atom_atom_bond_electron_molecule_science_-128.png" vertex="1" parent="ZEVXzhL1KLUuz-FHyzMR-69">
          <mxGeometry x="90" y="299.74" width="48.02" height="48.02" as="geometry" />
        </mxCell>
        <mxCell id="ZEVXzhL1KLUuz-FHyzMR-535" value="" style="shape=image;html=1;verticalAlign=top;verticalLabelPosition=bottom;labelBackgroundColor=#ffffff;imageAspect=0;aspect=fixed;image=https://cdn1.iconfinder.com/data/icons/science-technology-outline-24-px/24/Atom_atom_bond_electron_molecule_science_-128.png" vertex="1" parent="ZEVXzhL1KLUuz-FHyzMR-69">
          <mxGeometry x="510" y="411.98" width="48.02" height="48.02" as="geometry" />
        </mxCell>
        <mxCell id="ZEVXzhL1KLUuz-FHyzMR-643" value="" style="shape=image;html=1;verticalAlign=top;verticalLabelPosition=bottom;labelBackgroundColor=#ffffff;imageAspect=0;aspect=fixed;image=https://cdn0.iconfinder.com/data/icons/business-startup-10/50/30-128.png" vertex="1" parent="ZEVXzhL1KLUuz-FHyzMR-69">
          <mxGeometry x="337.76" y="53" width="28" height="28" as="geometry" />
        </mxCell>
        <mxCell id="ZEVXzhL1KLUuz-FHyzMR-644" value="" style="shape=image;html=1;verticalAlign=top;verticalLabelPosition=bottom;labelBackgroundColor=#ffffff;imageAspect=0;aspect=fixed;image=https://cdn0.iconfinder.com/data/icons/business-startup-10/50/30-128.png" vertex="1" parent="ZEVXzhL1KLUuz-FHyzMR-69">
          <mxGeometry x="184.51999999999998" y="249.94000000000005" width="28" height="28" as="geometry" />
        </mxCell>
        <mxCell id="ZEVXzhL1KLUuz-FHyzMR-645" value="" style="shape=image;html=1;verticalAlign=top;verticalLabelPosition=bottom;labelBackgroundColor=#ffffff;imageAspect=0;aspect=fixed;image=https://cdn0.iconfinder.com/data/icons/business-startup-10/50/30-128.png" vertex="1" parent="ZEVXzhL1KLUuz-FHyzMR-69">
          <mxGeometry x="150" y="122.5" width="23.52" height="23.52" as="geometry" />
        </mxCell>
        <mxCell id="ZEVXzhL1KLUuz-FHyzMR-646" value="" style="shape=image;html=1;verticalAlign=top;verticalLabelPosition=bottom;labelBackgroundColor=#ffffff;imageAspect=0;aspect=fixed;image=https://cdn0.iconfinder.com/data/icons/business-startup-10/50/30-128.png" vertex="1" parent="ZEVXzhL1KLUuz-FHyzMR-69">
          <mxGeometry x="320" y="87.18000000000006" width="23.52" height="23.52" as="geometry" />
        </mxCell>
        <mxCell id="ZEVXzhL1KLUuz-FHyzMR-174" value="" style="rhombus;whiteSpace=wrap;html=1;aspect=fixed;fillColor=#60a917;fontColor=#ffffff;strokeColor=none;" vertex="1" parent="ZEVXzhL1KLUuz-FHyzMR-210">
          <mxGeometry x="392" y="253.79999999999995" width="13.24" height="13.24" as="geometry" />
        </mxCell>
        <mxCell id="ZEVXzhL1KLUuz-FHyzMR-175" value="" style="rhombus;whiteSpace=wrap;html=1;aspect=fixed;fillColor=#60a917;fontColor=#ffffff;strokeColor=none;" vertex="1" parent="ZEVXzhL1KLUuz-FHyzMR-210">
          <mxGeometry x="402" y="263.79999999999995" width="13.24" height="13.24" as="geometry" />
        </mxCell>
        <mxCell id="ZEVXzhL1KLUuz-FHyzMR-177" value="" style="rhombus;whiteSpace=wrap;html=1;aspect=fixed;fillColor=#60a917;fontColor=#ffffff;strokeColor=none;" vertex="1" parent="ZEVXzhL1KLUuz-FHyzMR-210">
          <mxGeometry x="387.24" y="267.76" width="13.24" height="13.24" as="geometry" />
        </mxCell>
        <mxCell id="ZEVXzhL1KLUuz-FHyzMR-178" value="" style="rhombus;whiteSpace=wrap;html=1;aspect=fixed;fillColor=#60a917;fontColor=#ffffff;strokeColor=none;" vertex="1" parent="ZEVXzhL1KLUuz-FHyzMR-210">
          <mxGeometry x="397.24" y="277.76" width="13.24" height="13.24" as="geometry" />
        </mxCell>
        <mxCell id="ZEVXzhL1KLUuz-FHyzMR-179" value="" style="rhombus;whiteSpace=wrap;html=1;aspect=fixed;fillColor=#60a917;fontColor=#ffffff;strokeColor=none;" vertex="1" parent="ZEVXzhL1KLUuz-FHyzMR-210">
          <mxGeometry x="407.24" y="287.76" width="13.24" height="13.24" as="geometry" />
        </mxCell>
        <mxCell id="ZEVXzhL1KLUuz-FHyzMR-182" value="" style="rhombus;whiteSpace=wrap;html=1;aspect=fixed;fillColor=#60a917;fontColor=#ffffff;strokeColor=none;" vertex="1" parent="ZEVXzhL1KLUuz-FHyzMR-210">
          <mxGeometry x="371.65999999999997" y="271.02" width="13.24" height="13.24" as="geometry" />
        </mxCell>
        <mxCell id="ZEVXzhL1KLUuz-FHyzMR-183" value="" style="rhombus;whiteSpace=wrap;html=1;aspect=fixed;fillColor=#60a917;fontColor=#ffffff;strokeColor=none;" vertex="1" parent="ZEVXzhL1KLUuz-FHyzMR-210">
          <mxGeometry x="381.65999999999997" y="281.02" width="13.24" height="13.24" as="geometry" />
        </mxCell>
        <mxCell id="ZEVXzhL1KLUuz-FHyzMR-184" value="" style="rhombus;whiteSpace=wrap;html=1;aspect=fixed;fillColor=#60a917;fontColor=#ffffff;strokeColor=none;" vertex="1" parent="ZEVXzhL1KLUuz-FHyzMR-210">
          <mxGeometry x="391.65999999999997" y="291.02" width="13.24" height="13.24" as="geometry" />
        </mxCell>
        <mxCell id="ZEVXzhL1KLUuz-FHyzMR-185" value="" style="rhombus;whiteSpace=wrap;html=1;aspect=fixed;fillColor=#60a917;fontColor=#ffffff;strokeColor=none;" vertex="1" parent="ZEVXzhL1KLUuz-FHyzMR-210">
          <mxGeometry x="401.65999999999997" y="300.02" width="13.24" height="13.24" as="geometry" />
        </mxCell>
        <mxCell id="ZEVXzhL1KLUuz-FHyzMR-186" value="" style="rhombus;whiteSpace=wrap;html=1;aspect=fixed;fillColor=#60a917;fontColor=#ffffff;strokeColor=none;" vertex="1" parent="ZEVXzhL1KLUuz-FHyzMR-210">
          <mxGeometry x="413.65999999999997" y="306.02" width="13.24" height="13.24" as="geometry" />
        </mxCell>
        <mxCell id="ZEVXzhL1KLUuz-FHyzMR-189" value="" style="rhombus;whiteSpace=wrap;html=1;aspect=fixed;fillColor=#60a917;fontColor=#ffffff;strokeColor=none;fontStyle=1" vertex="1" parent="ZEVXzhL1KLUuz-FHyzMR-210">
          <mxGeometry x="374.9" y="291.26" width="13.24" height="13.24" as="geometry" />
        </mxCell>
        <mxCell id="ZEVXzhL1KLUuz-FHyzMR-190" value="" style="rhombus;whiteSpace=wrap;html=1;aspect=fixed;fillColor=#60a917;fontColor=#ffffff;strokeColor=none;fontStyle=1" vertex="1" parent="ZEVXzhL1KLUuz-FHyzMR-210">
          <mxGeometry x="385.9" y="302.26" width="13.24" height="13.24" as="geometry" />
        </mxCell>
        <mxCell id="ZEVXzhL1KLUuz-FHyzMR-196" value="" style="rhombus;whiteSpace=wrap;html=1;aspect=fixed;fillColor=#60a917;fontColor=#ffffff;strokeColor=none;" vertex="1" parent="ZEVXzhL1KLUuz-FHyzMR-210">
          <mxGeometry x="383" y="244.79999999999995" width="13.24" height="13.24" as="geometry" />
        </mxCell>
        <mxCell id="ZEVXzhL1KLUuz-FHyzMR-212" value="" style="rounded=1;whiteSpace=wrap;html=1;fillColor=none;fontColor=#ffffff;strokeColor=#005700;strokeWidth=11;" vertex="1" parent="1">
          <mxGeometry x="240" y="-800" width="1640" height="690" as="geometry" />
        </mxCell>
        <mxCell id="ZEVXzhL1KLUuz-FHyzMR-542" value="" style="endArrow=classic;html=1;exitX=1;exitY=0;exitDx=0;exitDy=0;curved=1;strokeWidth=8;entryX=0;entryY=0.5;entryDx=0;entryDy=0;fillColor=#1ba1e2;strokeColor=#006EAF;" edge="1" parent="1" source="ZEVXzhL1KLUuz-FHyzMR-98" target="ZEVXzhL1KLUuz-FHyzMR-639">
          <mxGeometry width="50" height="50" relative="1" as="geometry">
            <mxPoint x="430" y="-1130" as="sourcePoint" />
            <mxPoint x="480" y="-1180" as="targetPoint" />
            <Array as="points">
              <mxPoint x="630" y="-1880" />
            </Array>
          </mxGeometry>
        </mxCell>
        <mxCell id="ZEVXzhL1KLUuz-FHyzMR-543" value="" style="endArrow=classic;html=1;exitX=0;exitY=0.5;exitDx=0;exitDy=0;curved=1;strokeWidth=8;fillColor=#1ba1e2;strokeColor=#006EAF;entryX=1;entryY=0.5;entryDx=0;entryDy=0;" edge="1" parent="1" source="ZEVXzhL1KLUuz-FHyzMR-639" target="ZEVXzhL1KLUuz-FHyzMR-530">
          <mxGeometry width="50" height="50" relative="1" as="geometry">
            <mxPoint x="-301" y="-1526" as="sourcePoint" />
            <mxPoint x="1580" y="-1542" as="targetPoint" />
            <Array as="points">
              <mxPoint x="740" y="-1650" />
              <mxPoint x="100" y="-1450" />
            </Array>
          </mxGeometry>
        </mxCell>
        <mxCell id="ZEVXzhL1KLUuz-FHyzMR-639" value="" style="shape=image;html=1;verticalAlign=top;verticalLabelPosition=bottom;labelBackgroundColor=#ffffff;imageAspect=0;aspect=fixed;image=https://cdn1.iconfinder.com/data/icons/science-technology-outline-24-px/24/Atom_atom_bond_electron_molecule_science_-128.png" vertex="1" parent="1">
          <mxGeometry x="1610" y="-1760" width="128" height="128" as="geometry" />
        </mxCell>
        <mxCell id="ZEVXzhL1KLUuz-FHyzMR-640" value="" style="shape=image;html=1;verticalAlign=top;verticalLabelPosition=bottom;labelBackgroundColor=#ffffff;imageAspect=0;aspect=fixed;image=https://cdn1.iconfinder.com/data/icons/science-technology-outline-24-px/24/Atom_atom_bond_electron_molecule_science_-128.png" vertex="1" parent="1">
          <mxGeometry x="1480" y="-1434" width="318" height="318" as="geometry" />
        </mxCell>
        <mxCell id="ZEVXzhL1KLUuz-FHyzMR-641" value="" style="endArrow=classic;html=1;strokeWidth=35;entryX=0;entryY=1;entryDx=0;entryDy=0;fillColor=#d80073;strokeColor=#A50040;curved=1;" edge="1" parent="1" target="ZEVXzhL1KLUuz-FHyzMR-86">
          <mxGeometry width="50" height="50" relative="1" as="geometry">
            <mxPoint x="-1200" y="-750" as="sourcePoint" />
            <mxPoint x="1370" y="-1706" as="targetPoint" />
            <Array as="points">
              <mxPoint x="-1130" y="-880" />
            </Array>
          </mxGeometry>
        </mxCell>
        <mxCell id="ZEVXzhL1KLUuz-FHyzMR-649" value="" style="endArrow=classic;html=1;exitX=0;exitY=0;exitDx=0;exitDy=0;strokeWidth=18;fillColor=#d80073;strokeColor=#A50040;curved=1;entryX=0.5;entryY=0;entryDx=0;entryDy=0;dashed=1;opacity=50;" edge="1" parent="1" source="ZEVXzhL1KLUuz-FHyzMR-49" target="ZEVXzhL1KLUuz-FHyzMR-654">
          <mxGeometry width="50" height="50" relative="1" as="geometry">
            <mxPoint x="-1252" y="-620" as="sourcePoint" />
            <mxPoint x="-1441.130434782609" y="-648" as="targetPoint" />
            <Array as="points">
              <mxPoint x="-1390" y="-1320" />
            </Array>
          </mxGeometry>
        </mxCell>
        <mxCell id="ZEVXzhL1KLUuz-FHyzMR-661" value="" style="group" vertex="1" connectable="0" parent="1">
          <mxGeometry x="-1230" y="-1380" width="39.98000000000002" height="39.98000000000002" as="geometry" />
        </mxCell>
        <mxCell id="ZEVXzhL1KLUuz-FHyzMR-656" value="" style="ellipse;whiteSpace=wrap;html=1;aspect=fixed;fillColor=#6a00ff;strokeColor=none;gradientDirection=radial;strokeWidth=3;fontColor=#ffffff;gradientColor=default;" vertex="1" parent="ZEVXzhL1KLUuz-FHyzMR-661">
          <mxGeometry width="39.98" height="39.98" as="geometry" />
        </mxCell>
        <mxCell id="ZEVXzhL1KLUuz-FHyzMR-655" value="" style="shape=image;html=1;verticalAlign=top;verticalLabelPosition=bottom;labelBackgroundColor=#ffffff;imageAspect=0;aspect=fixed;image=https://cdn0.iconfinder.com/data/icons/business-startup-10/50/30-128.png" vertex="1" parent="ZEVXzhL1KLUuz-FHyzMR-661">
          <mxGeometry x="5.990000000000009" y="5.990000000000009" width="28" height="28" as="geometry" />
        </mxCell>
        <mxCell id="ZEVXzhL1KLUuz-FHyzMR-662" value="" style="group" vertex="1" connectable="0" parent="1">
          <mxGeometry x="-1060" y="-990" width="39.98000000000002" height="39.98000000000002" as="geometry" />
        </mxCell>
        <mxCell id="ZEVXzhL1KLUuz-FHyzMR-663" value="" style="ellipse;whiteSpace=wrap;html=1;aspect=fixed;fillColor=#6a00ff;strokeColor=none;gradientDirection=radial;strokeWidth=3;fontColor=#ffffff;gradientColor=default;" vertex="1" parent="ZEVXzhL1KLUuz-FHyzMR-662">
          <mxGeometry width="39.98" height="39.98" as="geometry" />
        </mxCell>
        <mxCell id="ZEVXzhL1KLUuz-FHyzMR-664" value="" style="shape=image;html=1;verticalAlign=top;verticalLabelPosition=bottom;labelBackgroundColor=#ffffff;imageAspect=0;aspect=fixed;image=https://cdn0.iconfinder.com/data/icons/business-startup-10/50/30-128.png" vertex="1" parent="ZEVXzhL1KLUuz-FHyzMR-662">
          <mxGeometry x="5.990000000000009" y="5.990000000000009" width="28" height="28" as="geometry" />
        </mxCell>
        <mxCell id="ZEVXzhL1KLUuz-FHyzMR-665" value="" style="group" vertex="1" connectable="0" parent="1">
          <mxGeometry x="-1200" y="-970" width="130" height="119.98" as="geometry" />
        </mxCell>
        <mxCell id="ZEVXzhL1KLUuz-FHyzMR-666" value="" style="ellipse;whiteSpace=wrap;html=1;aspect=fixed;fillColor=#6a00ff;strokeColor=none;gradientDirection=radial;strokeWidth=3;fontColor=#ffffff;gradientColor=default;" vertex="1" parent="ZEVXzhL1KLUuz-FHyzMR-665">
          <mxGeometry width="119.97999999999995" height="119.97999999999995" as="geometry" />
        </mxCell>
        <mxCell id="ZEVXzhL1KLUuz-FHyzMR-667" value="" style="shape=image;html=1;verticalAlign=top;verticalLabelPosition=bottom;labelBackgroundColor=#ffffff;imageAspect=0;aspect=fixed;image=https://cdn0.iconfinder.com/data/icons/business-startup-10/50/30-128.png" vertex="1" parent="ZEVXzhL1KLUuz-FHyzMR-665">
          <mxGeometry x="19.477238619309674" y="17.97599299649827" width="84.02801400700346" height="84.02801400700346" as="geometry" />
        </mxCell>
        <mxCell id="ZEVXzhL1KLUuz-FHyzMR-669" value="" style="group" vertex="1" connectable="0" parent="1">
          <mxGeometry x="-1220" y="-1370" width="39.98000000000002" height="39.98000000000002" as="geometry" />
        </mxCell>
        <mxCell id="ZEVXzhL1KLUuz-FHyzMR-670" value="" style="ellipse;whiteSpace=wrap;html=1;aspect=fixed;fillColor=#6a00ff;strokeColor=none;gradientDirection=radial;strokeWidth=3;fontColor=#ffffff;gradientColor=default;" vertex="1" parent="ZEVXzhL1KLUuz-FHyzMR-669">
          <mxGeometry width="39.98" height="39.98" as="geometry" />
        </mxCell>
        <mxCell id="ZEVXzhL1KLUuz-FHyzMR-671" value="" style="shape=image;html=1;verticalAlign=top;verticalLabelPosition=bottom;labelBackgroundColor=#ffffff;imageAspect=0;aspect=fixed;image=https://cdn0.iconfinder.com/data/icons/business-startup-10/50/30-128.png" vertex="1" parent="ZEVXzhL1KLUuz-FHyzMR-669">
          <mxGeometry x="5.990000000000009" y="5.990000000000009" width="28" height="28" as="geometry" />
        </mxCell>
        <mxCell id="ZEVXzhL1KLUuz-FHyzMR-672" value="" style="group" vertex="1" connectable="0" parent="1">
          <mxGeometry x="-1210" y="-1360" width="39.98000000000002" height="39.98000000000002" as="geometry" />
        </mxCell>
        <mxCell id="ZEVXzhL1KLUuz-FHyzMR-673" value="" style="ellipse;whiteSpace=wrap;html=1;aspect=fixed;fillColor=#6a00ff;strokeColor=none;gradientDirection=radial;strokeWidth=3;fontColor=#ffffff;gradientColor=default;" vertex="1" parent="ZEVXzhL1KLUuz-FHyzMR-672">
          <mxGeometry width="39.98" height="39.98" as="geometry" />
        </mxCell>
        <mxCell id="ZEVXzhL1KLUuz-FHyzMR-674" value="" style="shape=image;html=1;verticalAlign=top;verticalLabelPosition=bottom;labelBackgroundColor=#ffffff;imageAspect=0;aspect=fixed;image=https://cdn0.iconfinder.com/data/icons/business-startup-10/50/30-128.png" vertex="1" parent="ZEVXzhL1KLUuz-FHyzMR-672">
          <mxGeometry x="5.990000000000009" y="5.990000000000009" width="28" height="28" as="geometry" />
        </mxCell>
        <mxCell id="ZEVXzhL1KLUuz-FHyzMR-675" value="" style="group" vertex="1" connectable="0" parent="1">
          <mxGeometry x="-1200" y="-1350" width="39.98000000000002" height="39.98000000000002" as="geometry" />
        </mxCell>
        <mxCell id="ZEVXzhL1KLUuz-FHyzMR-676" value="" style="ellipse;whiteSpace=wrap;html=1;aspect=fixed;fillColor=#6a00ff;strokeColor=none;gradientDirection=radial;strokeWidth=3;fontColor=#ffffff;gradientColor=default;" vertex="1" parent="ZEVXzhL1KLUuz-FHyzMR-675">
          <mxGeometry width="39.98" height="39.98" as="geometry" />
        </mxCell>
        <mxCell id="ZEVXzhL1KLUuz-FHyzMR-677" value="" style="shape=image;html=1;verticalAlign=top;verticalLabelPosition=bottom;labelBackgroundColor=#ffffff;imageAspect=0;aspect=fixed;image=https://cdn0.iconfinder.com/data/icons/business-startup-10/50/30-128.png" vertex="1" parent="ZEVXzhL1KLUuz-FHyzMR-675">
          <mxGeometry x="5.990000000000009" y="5.990000000000009" width="28" height="28" as="geometry" />
        </mxCell>
        <mxCell id="ZEVXzhL1KLUuz-FHyzMR-733" value="" style="group" vertex="1" connectable="0" parent="1">
          <mxGeometry x="-1010" y="-1090" width="70" height="80" as="geometry" />
        </mxCell>
        <mxCell id="ZEVXzhL1KLUuz-FHyzMR-734" value="" style="ellipse;whiteSpace=wrap;html=1;aspect=fixed;fillColor=#6a00ff;strokeColor=none;gradientDirection=radial;strokeWidth=3;fontColor=#ffffff;gradientColor=default;" vertex="1" parent="ZEVXzhL1KLUuz-FHyzMR-733">
          <mxGeometry width="64.60461538461536" height="64.60461538461536" as="geometry" />
        </mxCell>
        <mxCell id="ZEVXzhL1KLUuz-FHyzMR-735" value="" style="shape=image;html=1;verticalAlign=top;verticalLabelPosition=bottom;labelBackgroundColor=#ffffff;imageAspect=0;aspect=fixed;image=https://cdn0.iconfinder.com/data/icons/business-startup-10/50/30-128.png" vertex="1" parent="ZEVXzhL1KLUuz-FHyzMR-733">
          <mxGeometry x="10.487743871935978" y="11.985992996498261" width="45.24585369607878" height="45.24585369607878" as="geometry" />
        </mxCell>
        <mxCell id="ZEVXzhL1KLUuz-FHyzMR-740" value="" style="group" vertex="1" connectable="0" parent="1">
          <mxGeometry x="-190" y="-1720" width="130" height="119.98" as="geometry" />
        </mxCell>
        <mxCell id="ZEVXzhL1KLUuz-FHyzMR-741" value="" style="ellipse;whiteSpace=wrap;html=1;aspect=fixed;fillColor=#6a00ff;strokeColor=none;gradientDirection=radial;strokeWidth=3;fontColor=#ffffff;gradientColor=default;" vertex="1" parent="ZEVXzhL1KLUuz-FHyzMR-740">
          <mxGeometry width="119.97999999999995" height="119.97999999999995" as="geometry" />
        </mxCell>
        <mxCell id="ZEVXzhL1KLUuz-FHyzMR-742" value="" style="shape=image;html=1;verticalAlign=top;verticalLabelPosition=bottom;labelBackgroundColor=#ffffff;imageAspect=0;aspect=fixed;image=https://cdn0.iconfinder.com/data/icons/business-startup-10/50/30-128.png" vertex="1" parent="ZEVXzhL1KLUuz-FHyzMR-740">
          <mxGeometry x="19.477238619309674" y="17.97599299649827" width="84.02801400700346" height="84.02801400700346" as="geometry" />
        </mxCell>
        <mxCell id="ZEVXzhL1KLUuz-FHyzMR-743" value="" style="shape=image;html=1;verticalAlign=top;verticalLabelPosition=bottom;labelBackgroundColor=#ffffff;imageAspect=0;aspect=fixed;image=https://cdn1.iconfinder.com/data/icons/science-technology-outline-24-px/24/Atom_atom_bond_electron_molecule_science_-128.png" vertex="1" parent="1">
          <mxGeometry x="-10" y="-1550" width="128" height="128" as="geometry" />
        </mxCell>
      </root>
    </mxGraphModel>
  </diagram>
</mxfile>
